<svg xmlns="http://www.w3.org/2000/svg" xmlns:xlink="http://www.w3.org/1999/xlink" id="Layer_1" x="0px" y="0px" viewBox="0 0 183.7 43.1" style="enable-background:new 0 0 183.7 43.1;" xml:space="preserve"><style type="text/css">	.st0{clip-path:url(#SVGID_00000070807099933410549780000006364059034695240639_);}	.st1{fill:#FFFFFF;}	.st2{clip-path:url(#SVGID_00000135653392892631696500000000599772917443959738_);}	.st3{clip-path:url(#SVGID_00000012438900417896499520000007715404867492936606_);}	.st4{fill:#EE2B29;}</style><g id="Group_16" transform="translate(-1786 -1154.999)">	<g id="Group_11" transform="translate(1829.004 1156.925)">		<g>			<defs>				<path id="SVGID_1_" d="M18.7,21.1h3.9V4.4h-3.9V21.1z M38.5,4.4l-5.4,12.4L28,4.4h-4.1l7.2,16.7h4l7.2-16.7H38.5z M50.9,7.3     c2.4-0.1,4.5,1.7,4.7,4.1h-9.5C46.5,9,48.5,7.2,50.9,7.3 M42.3,12.7c0,5,3.6,8.6,9.2,8.6c2.5,0.1,5-0.9,6.7-2.7l-2.1-2.4     C55,17.4,53.3,18,51.6,18c-2.9,0-5-1.6-5.4-4h13.1c0-0.4,0.1-0.8,0.1-1.2c0-5.2-3.6-8.6-8.5-8.6c-4.6-0.2-8.5,3.4-8.6,8     C42.3,12.3,42.3,12.5,42.3,12.7 M93.6,7.3c2.4-0.1,4.5,1.7,4.7,4.1h-9.5C89.1,9,91.2,7.2,93.6,7.3 M84.9,12.7     c0,5,3.6,8.6,9.2,8.6c2.5,0.1,5-0.9,6.7-2.7l-2.1-2.4C97.6,17.4,96,18,94.3,18c-2.9,0-5-1.6-5.4-4H102c0-0.4,0.1-0.8,0.1-1.2     c0-5.2-3.6-8.6-8.5-8.6c-4.6-0.2-8.5,3.4-8.6,8C84.9,12.3,84.9,12.5,84.9,12.7 M103.8,12.7c0,5,3.8,8.6,9.1,8.6     c3.3,0,5.9-1.4,7.1-3.9l-3-1.8c-0.9,1.5-2.5,2.3-4.2,2.3c-2.9-0.1-5.2-2.5-5.1-5.4c0.1-2.8,2.3-5,5.1-5.1c1.7,0,3.3,0.8,4.2,2.3     l3-1.8c-1.3-2.5-3.9-3.9-7.1-3.9C107.6,4.2,103.8,7.7,103.8,12.7 M0.9,1V21h15.5v-3.4H5V1H0.9z M69,1v3.4h7.3V21h4.1V4.4h7.3V1     H69z M122.7,0.9v20.2h3.9v-8.4c0-3.3,1.9-5,4.7-5c2.5,0,4,1.4,4,4.4v9.1h3.9v-9.6c0-5-3-7.3-7-7.3c-2.1-0.1-4.1,0.7-5.6,2.1V0.9     H122.7z"></path>			</defs>			<clipPath id="SVGID_00000070109483598080216650000000853020072940545471_">				<use xlink:href="#SVGID_1_" style="overflow:visible;"></use>			</clipPath>			<g id="Group_10" style="clip-path:url(#SVGID_00000070109483598080216650000000853020072940545471_);">				<rect id="Rectangle_2" x="-0.3" y="0" class="st1" width="140.8" height="23"></rect>			</g>		</g>	</g>	<g id="Group_13" transform="translate(1829.132 1183.626)">		<g>			<defs>				<path id="SVGID_00000126307765725333670470000009456759572953242785_" d="M23.4,2.5L24.9,6h-3.1L23.4,2.5z M22.7,1L19,9h1.6     l0.8-1.9h4.1L26.2,9h1.6l-3.7-8H22.7z M46.2,1L43,6.3L39.8,1h-1.2v8H40V3.8l2.7,4.3h0.7L46,3.7L46,9h1.4l0-8L46.2,1z M59.3,1v8     h6.1V7.8h-4.6V5.6h3.9V4.3h-3.9V2.2h4.4V1L59.3,1z M0.9,5c0,2.3,1.8,4.1,4.1,4.1c0.1,0,0.2,0,0.3,0c1.1,0,2.3-0.3,3.2-1V4.9H5.2     v1.2h1.9v1.3C6.6,7.7,6,7.8,5.4,7.8C3.8,7.9,2.5,6.7,2.5,5.1C2.4,3.6,3.6,2.2,5.2,2.2c0.1,0,0.2,0,0.2,0c0.8,0,1.7,0.3,2.2,0.9     l1-0.9c-0.8-0.9-2-1.4-3.3-1.3C3.1,0.7,1.1,2.5,1,4.7C0.9,4.8,0.9,4.9,0.9,5 M76.2,3.3c0,3,4.8,1.8,4.8,3.6c0,0.6-0.5,1-1.8,1     c-1,0-1.9-0.3-2.7-0.9L76,8.2c0.9,0.7,2.1,1,3.2,1c2.2,0,3.3-1.1,3.3-2.4c0-3-4.8-1.8-4.8-3.5c0-0.6,0.5-1.1,1.8-1.1     c0.8,0,1.6,0.2,2.2,0.6l0.5-1.2c-0.8-0.5-1.8-0.7-2.7-0.7C77.3,0.9,76.2,2,76.2,3.3"></path>			</defs>			<clipPath id="SVGID_00000047779293173318298720000011535610876396271004_">				<use xlink:href="#SVGID_00000126307765725333670470000009456759572953242785_" style="overflow:visible;"></use>			</clipPath>			<g id="Group_12" transform="translate(0)" style="clip-path:url(#SVGID_00000047779293173318298720000011535610876396271004_);">				<rect id="Rectangle_3" x="-0.3" y="-0.4" class="st1" width="84.2" height="10.8"></rect>			</g>		</g>	</g>	<g id="Group_15" transform="translate(1786 1154.999)">		<g>			<defs>				<path id="SVGID_00000145762141329195224150000014889468333222192773_" d="M26.8,31c1.4,0,2.5,1.1,2.5,2.5c0,1.4-1.1,2.5-2.5,2.5     c-1.4,0-2.5-1.1-2.5-2.5c0,0,0,0,0,0H12c0,1.4-1.1,2.5-2.5,2.5c-1.4,0-2.5-1.1-2.5-2.5c0-1.4,1.1-2.5,2.5-2.5c0,0,0,0,0,0v-6.2     H9.4c-4.8,0.1-8.6,4-8.5,8.8c0.1,4.8,4,8.6,8.8,8.5c3,0,5.7-1.6,7.2-4.1h2.5c2.5,4.1,7.8,5.4,11.9,2.9c4.1-2.5,5.4-7.8,2.9-11.9     c-1.6-2.6-4.4-4.1-7.4-4.1L26.8,31z M19.5,5h-2.5C14.5,0.9,9.1-0.3,5.1,2.1C1,4.6-0.3,9.9,2.2,14c1.5,2.5,4.3,4.1,7.2,4.1h0.1     V12c-1.4,0-2.5-1.1-2.5-2.5C7.1,8.1,8.2,7,9.6,7C10.9,7,12,8.1,12,9.5c0,0,0,0,0,0h12.3c0-1.4,1.1-2.5,2.5-2.5     c1.4,0,2.5,1.1,2.5,2.5c0,1.4-1.1,2.5-2.5,2.5c0,0,0,0,0,0v6.2H27c4.8-0.1,8.6-4,8.5-8.8c-0.1-4.8-4-8.6-8.8-8.5     C23.7,0.9,21,2.5,19.5,5"></path>			</defs>			<clipPath id="SVGID_00000047039304753681422100000013281417771397859207_">				<use xlink:href="#SVGID_00000145762141329195224150000014889468333222192773_" style="overflow:visible;"></use>			</clipPath>			<g id="Group_14" style="clip-path:url(#SVGID_00000047039304753681422100000013281417771397859207_);">				<rect id="Rectangle_4" x="-0.3" y="-0.4" class="st4" width="37.1" height="43.8"></rect>			</g>		</g>	</g></g></svg>